 <svg
                    width="40"
                    height="40"
                    viewBox="0 0 28 28"
                    fill="none"
                    xmlns="http://www.w3.org/2000/svg"
                >
                    <path
                        d="M18.3567 3H9.42756C7.78375 3 6.45117 4.22058 6.45117 5.72625V22.0837C6.45117 23.5894 7.78375 24.81 9.42756 24.81H18.3567C20.0005 24.81 21.3331 23.5894 21.3331 22.0837V5.72625C21.3331 4.22058 20.0005 3 18.3567 3Z"
                        fill="#488FF5"
                    ></path>
                    <path
                        d="M18.3475 5.09003C17.9233 5.09003 17.5782 5.39983 17.5782 5.78057C17.5782 6.828 16.6288 7.01333 15.4618 7.01333H12.5239C11.3569 7.01333 10.4075 6.828 10.4075 5.78057C10.4075 5.39983 10.0624 5.09003 9.63821 5.09003C8.81601 5.09003 8.14746 5.68647 8.14746 6.42808V21.302C8.14746 22.0424 8.81551 22.64 9.63821 22.64H18.3476C19.169 22.64 19.8383 22.0434 19.8383 21.302V6.42808C19.8383 5.68715 19.1704 5.09003 18.3475 5.09003Z"
                        fill="#DBE5F4"
                    ></path>
                    <path
                        d="M17.6128 21.5175H10.1719C10.0732 21.5175 9.97855 21.4783 9.90877 21.4085C9.839 21.3387 9.7998 21.2441 9.7998 21.1454C9.7998 21.0467 9.839 20.9521 9.90877 20.8823C9.97855 20.8126 10.0732 20.7734 10.1719 20.7734H17.6128C17.7115 20.7734 17.8061 20.8126 17.8759 20.8823C17.9457 20.9521 17.9849 21.0467 17.9849 21.1454C17.9849 21.2441 17.9457 21.3387 17.8759 21.4085C17.8061 21.4783 17.7115 21.5175 17.6128 21.5175Z"
                        fill="#B7CFF3"
                    ></path>
                    <path
                        d="M19.0859 7.92407C19.2914 7.92407 19.458 7.7575 19.458 7.55203C19.458 7.34656 19.2914 7.17999 19.0859 7.17999C18.8804 7.17999 18.7139 7.34656 18.7139 7.55203C18.7139 7.7575 18.8804 7.92407 19.0859 7.92407Z"
                        fill="#B7CFF3"
                    ></path>
                    <path
                        d="M17.5986 7.92407C17.8041 7.92407 17.9707 7.7575 17.9707 7.55203C17.9707 7.34656 17.8041 7.17999 17.5986 7.17999C17.3931 7.17999 17.2266 7.34656 17.2266 7.55203C17.2266 7.7575 17.3931 7.92407 17.5986 7.92407Z"
                        fill="#B7CFF3"
                    ></path>
                    <path
                        d="M13.8918 9.06881V12.0451H6.45086V13.1203C6.45039 13.1904 6.43014 13.2589 6.39244 13.318C6.35473 13.3771 6.3011 13.4243 6.23773 13.4543C6.17435 13.4842 6.10381 13.4956 6.03423 13.4872C5.96464 13.4788 5.89885 13.4509 5.84442 13.4068L2.73037 10.8434C2.68824 10.8085 2.65433 10.7648 2.63105 10.7152C2.60777 10.6657 2.5957 10.6117 2.5957 10.557C2.5957 10.5023 2.60777 10.4482 2.63105 10.3987C2.65433 10.3492 2.68824 10.3054 2.73037 10.2705L5.86302 7.70715C5.91745 7.66299 5.98325 7.6351 6.05283 7.6267C6.12241 7.61831 6.19296 7.62973 6.25633 7.65967C6.31971 7.68961 6.37333 7.73684 6.41104 7.79592C6.44875 7.855 6.469 7.92353 6.46946 7.99362V9.06881H13.8918Z"
                        fill="#2068CD"
                    ></path>
                    <path
                        fillRule="evenodd"
                        clipRule="evenodd"
                        d="M13.8945 24.81V3H18.3586C20.0024 3 21.335 4.22058 21.335 5.72625V22.0837C21.335 23.5894 20.0024 24.81 18.3586 24.81H13.8945Z"
                        fill="black"
                        fill-opacity="0.1"
                    ></path>
                    <path
                        d="M13.8926 15.7652V18.7415H21.3336V19.8167C21.334 19.8868 21.3543 19.9554 21.392 20.0144C21.4297 20.0735 21.4833 20.1207 21.5467 20.1507C21.6101 20.1806 21.6806 20.192 21.7502 20.1836C21.8198 20.1752 21.8856 20.1474 21.94 20.1032L25.0726 17.5399C25.1148 17.5049 25.1487 17.4612 25.172 17.4117C25.1952 17.3621 25.2073 17.3081 25.2073 17.2534C25.2073 17.1987 25.1952 17.1446 25.172 17.0951C25.1487 17.0456 25.1148 17.0018 25.0726 16.9669L21.94 14.4036C21.8856 14.3594 21.8198 14.3315 21.7502 14.3231C21.6806 14.3147 21.6101 14.3261 21.5467 14.3561C21.4833 14.386 21.4297 14.4332 21.392 14.4923C21.3543 14.5514 21.334 14.6199 21.3336 14.69V15.7652H13.8926Z"
                        fill="#2068CD"
                    ></path>
                    <g clip-path="url(#clip0_4301_28284)">
                        <path
                            d="M13.8465 8.75848C11.0328 8.75848 8.68555 11.0533 8.68555 13.867C8.68555 16.6806 11.0328 19.0278 13.8465 19.0278C16.6603 19.0278 18.9552 16.6806 18.9552 13.867C18.9552 11.0533 16.6603 8.75848 13.8465 8.75848Z"
                            fill="#FFAC00"
                        ></path>
                        <path
                            d="M18.9551 13.867C18.9551 16.6806 16.6485 19.0278 13.8203 19.0278V8.75848C16.6485 8.75848 18.9551 11.0533 18.9551 13.867Z"
                            fill="#ED9600"
                        ></path>
                        <path
                            d="M14.6202 13.4907H14.2341V11.9805H14.6202C14.8364 11.9805 15.0063 12.1466 15.0063 12.358C15.0063 12.8564 15.7784 12.8564 15.7784 12.358C15.7784 11.7313 15.2612 11.2254 14.6202 11.2254H14.2341V10.8478C14.2341 10.5986 14.0411 10.4703 13.8481 10.4703C13.655 10.4703 13.462 10.5986 13.462 10.8478V11.2254H13.0244C12.3835 11.2254 11.8662 11.7313 11.8662 12.358V13.1131C11.8662 13.7399 12.3835 14.2458 13.0244 14.2458H13.462V15.8063H13.0244C12.8082 15.8063 12.6384 15.6402 12.6384 15.4288C12.6384 14.9304 11.8662 14.9304 11.8662 15.4288C11.8662 16.0555 12.3835 16.5614 13.0244 16.5614H13.462V16.939C13.462 17.1882 13.655 17.3165 13.8481 17.3165C14.0411 17.3165 14.2341 17.1882 14.2341 16.939V16.5614H14.6202C15.2612 16.5614 15.7784 16.0555 15.7784 15.4288V14.6233C15.7784 13.9966 15.2612 13.4907 14.6202 13.4907ZM13.462 13.4907H13.0244C12.8082 13.4907 12.6384 13.3246 12.6384 13.1131V12.358C12.6384 12.1466 12.8082 11.9805 13.0244 11.9805H13.462V13.4907ZM15.0063 15.4288C15.0063 15.6402 14.8364 15.8063 14.6202 15.8063H14.2341V14.2458H14.6202C14.8364 14.2458 15.0063 14.4119 15.0063 14.6233V15.4288Z"
                            fill="#FFE160"
                        ></path>
                        <path
                            d="M14.6028 13.4907H14.2115V11.9805H14.6028C14.8219 11.9805 14.994 12.1466 14.994 12.358C14.994 12.8564 15.7764 12.8564 15.7764 12.358C15.7764 11.7313 15.2522 11.2254 14.6028 11.2254H14.2115V10.8478C14.2115 10.5986 14.0159 10.4703 13.8203 10.4703V17.3165C14.0159 17.3165 14.2115 17.1882 14.2115 16.939V16.5614H14.6028C15.2522 16.5614 15.7764 16.0555 15.7764 15.4288V14.6233C15.7764 13.9966 15.2522 13.4907 14.6028 13.4907ZM14.994 15.4288C14.994 15.6402 14.8219 15.8063 14.6028 15.8063H14.2115V14.2458H14.6028C14.8219 14.2458 14.994 14.4119 14.994 14.6233V15.4288Z"
                            fill="#FFD148"
                        ></path>
                    </g>
                    <defs>
                        <clipPath id="clip0_4301_28284">
                            <rect
                                width="10.2696"
                                height="10.2694"
                                fill="white"
                                transform="translate(8.68359 8.75867)"
                            ></rect>
                        </clipPath>
                    </defs>
                </svg>