<svg
    width="40"
    height="40"
    viewBox="0 0 28 28"
    fill="none"
    xmlns="http://www.w3.org/2000/svg"
>
    <path
        d="M23.9395 17.6609L8.23954 20.4292C7.26952 20.6003 6.34454 19.9526 6.17351 18.9826L4.44536 9.18183C4.27433 8.21182 4.92203 7.28683 5.892 7.1158L21.592 4.34746C22.562 4.17643 23.487 4.82413 23.658 5.7941L25.3861 15.5949C25.5572 16.5648 24.9095 17.4898 23.9395 17.6609Z"
        fill="#3555A2"
    ></path>
    <path
        d="M21.5922 4.3474L13.7422 5.73157L16.0897 19.045L23.9397 17.6609C24.9097 17.4898 25.5574 16.5648 25.3863 15.5948L23.6582 5.79408C23.4872 4.82407 22.5622 4.17637 21.5922 4.3474Z"
        fill="#1B3555"
    ></path>
    <path
        d="M19.9745 23.68H4.36938C3.38443 23.68 2.58594 22.8815 2.58594 21.8966V12.1894C2.58594 11.2044 3.38443 10.4059 4.36938 10.4059H19.9745C20.9594 10.4059 21.7579 11.2044 21.7579 12.1894V21.8966C21.7579 22.8815 20.9594 23.68 19.9745 23.68Z"
        fill="#3984EF"
    ></path>
    <path
        d="M19.9744 10.4059H12.1719V23.68H19.9744C20.9594 23.68 21.7579 22.8815 21.7579 21.8966V12.1894C21.7579 11.2044 20.9594 10.4059 19.9744 10.4059Z"
        fill="#2068CD"
    ></path>
    <path
        d="M2.58594 13.44H21.7579V16.4741H2.58594V13.44Z"
        fill="#ECF6FD"
    ></path>
    <path
        d="M7.89525 20.7356H4.86117C4.49182 20.7356 4.19238 21.035 4.19238 21.4044C4.19238 21.7737 4.49182 22.0732 4.86117 22.0732H7.89525C8.2646 22.0732 8.56404 21.7737 8.56404 21.4044C8.56404 21.035 8.2646 20.7356 7.89525 20.7356Z"
        fill="#EAF6FF"
    ></path>
    <path
        d="M12.1719 13.44H21.7579V16.4741H12.1719V13.44Z"
        fill="#D6E8FE"
    ></path>
</svg>