<svg
    width="40"
    height="24"
    xmlns="http://www.w3.org/2000/svg"
    viewBox="0 0 20 12"
    fill="none"
>
    <path
        d="M18.7929 11.9145H1.20706C0.619311 11.9145 0.142822 11.4093 0.142822 10.7862V1.21422C0.142822 0.591102 0.619311 0.0859375 1.20706 0.0859375H18.7929C19.3806 0.0859375 19.8571 0.591102 19.8571 1.21422V10.7862C19.8571 11.4093 19.3806 11.9145 18.7929 11.9145Z"
        fill="#1EB7A2"
    ></path>
    <path
        d="M18.8718 3.54066V8.46023C18.8718 8.73399 18.7062 8.96896 18.4753 9.02594C18.2719 9.07624 18.0805 9.16459 17.9072 9.2843C17.7386 9.39993 17.5872 9.54507 17.4578 9.71378L17.4565 9.71527C17.2784 9.94764 17.1426 10.2246 17.0618 10.5299C16.9986 10.7693 16.8032 10.9289 16.5874 10.9289H3.41331C3.19746 10.9289 3.00209 10.7693 2.93889 10.5299C2.73984 9.77466 2.19886 9.19243 1.5254 9.02594C1.29451 8.96896 1.12891 8.73399 1.12891 8.46023V3.54066C1.12891 3.26726 1.29451 3.03174 1.5254 2.97494C1.67981 2.93652 1.82733 2.87657 1.96526 2.79732C2.42895 2.53191 2.78544 2.05306 2.93889 1.47082C3.00209 1.2314 3.19746 1.07178 3.41331 1.07178H16.5874C16.8032 1.07178 16.9986 1.2314 17.0618 1.47082C17.2608 2.22604 17.8018 2.80827 18.4753 2.97494C18.7062 3.03174 18.8718 3.26726 18.8718 3.54066Z"
        fill="#7AF4AB"
    ></path>
    <path
        d="M13.7192 6.1065C13.7192 8.1676 12.0483 9.83849 9.98699 9.83849C7.92589 9.83849 6.255 8.1676 6.255 6.1065C6.255 4.04522 7.92589 2.37451 9.98699 2.37451C12.0483 2.37451 13.7192 4.04522 13.7192 6.1065Z"
        fill="#1A9C91"
    ></path>
    <path
        d="M11.2491 7.02246C11.2491 5.49495 9.47761 5.89386 9.47761 5.12197C9.47761 4.82592 9.6857 4.67578 10.0961 4.67578C10.3778 4.67578 10.5316 4.75509 10.644 4.81304C10.7142 4.84914 10.7748 4.88049 10.8443 4.88049C11.0351 4.88049 11.152 4.66985 11.152 4.51886C11.152 4.22298 10.7018 4.10487 10.36 4.06606V3.51058C10.36 3.3218 10.2071 3.16895 10.0184 3.16895C9.82975 3.16895 9.67672 3.3218 9.67672 3.51058V4.09233C9.11903 4.21485 8.79757 4.59681 8.79757 5.16501C8.79757 6.55543 10.5691 6.10382 10.5691 7.0655C10.5691 7.52321 10.2239 7.61929 9.93447 7.61929C9.32204 7.61929 9.26714 7.1831 9.0138 7.1831C8.84044 7.1831 8.70081 7.38086 8.70081 7.54473C8.70081 7.80163 9.07294 8.15987 9.67672 8.24714V8.71756C9.67672 8.90617 9.82975 9.05919 10.0184 9.05919C10.2071 9.05919 10.36 8.90617 10.36 8.71756V8.2224C10.9238 8.0892 11.2491 7.66166 11.2491 7.02246Z"
        fill="#7AF4A9"
    ></path>
    <path
        fillRule="evenodd"
        clipRule="evenodd"
        d="M10 11.9145V0.0859375H18.7915C19.3799 0.0859375 19.857 0.591102 19.857 1.21422V10.7862C19.857 11.4093 19.3799 11.9145 18.7915 11.9145H10Z"
        fill="black"
        fill-opacity="0.12"
    ></path>
</svg>